<svg width="174" height="50" viewBox="0 0 174 50" fill="none" xmlns="http://www.w3.org/2000/svg">
<g clip-path="url(#clip0_112560_2043)">
<path d="M51.2083 19.0508C49.734 15.4472 47.3598 12.3007 44.3222 9.92481C41.2846 7.54894 37.6897 6.0267 33.8957 5.5098C30.1018 4.9929 26.2413 5.49939 22.699 6.9788C19.1568 8.4582 16.0564 10.8589 13.7068 13.9415C11.3573 17.0242 9.84074 20.6812 9.30822 24.5481C8.7757 28.415 9.24584 32.3568 10.6718 35.9805C12.0977 39.6043 14.4297 42.7836 17.4353 45.2015C20.4409 47.6194 24.0151 49.1915 27.8018 49.7611C27.3058 47.9377 26.8012 45.9223 26.3565 43.7848C27.6502 44.6409 29.0118 45.3851 30.4272 46.0096C30.4272 46.0096 30.5298 47.8941 30.6666 49.9967C32.1959 50.0236 33.7237 49.8861 35.2248 49.5866C35.186 49.3674 35.186 49.1428 35.2248 48.9236C35.4728 47.2921 36.157 44.3519 36.2938 42.4587C37.2801 41.5176 38.1167 40.4256 38.7738 39.2219L38.7225 39.6058C38.2522 43.3224 37.2687 47.2921 36.6701 48.3914C36.4763 48.7552 36.2377 49.0924 35.9603 49.3947C39.0559 48.6538 41.9565 47.235 44.4611 45.2365C46.9656 43.2381 49.0142 40.7079 50.4647 37.8212C51.9153 34.9346 52.7331 31.7607 52.8615 28.5195C52.9899 25.2783 52.4258 22.0474 51.2083 19.0508ZM49.9511 22.3574C49.5749 22.7326 48.7966 22.9856 48.6684 21.8514C48.5401 20.7172 48.5059 19.9233 48.5059 19.9233C48.5059 19.9233 46.8554 16.9308 46.2396 16.8959C45.6239 16.861 41.2539 19.9233 40.0994 21.2581C39.0988 22.3836 38.9021 22.3051 38.9021 24.2855C38.9021 25.7774 39.0903 31.4135 38.9876 35.7234L32.0178 37.6166C29.8272 38.258 27.5993 38.7592 25.3474 39.1172L24.4922 34.0308H24.3725L22.1746 22.5406C22.1746 22.5406 18.9164 21.2843 17.7191 20.9441C17.1569 20.6931 16.5361 20.6116 15.93 20.709C15.3239 20.8064 14.7577 21.0787 14.2983 21.4937C13.8297 21.9123 13.455 22.429 13.1997 23.0086C12.9444 23.5883 12.8145 24.2172 12.8189 24.8526C12.9996 25.2581 13.1373 25.6822 13.2294 26.1177C13.2721 26.5365 12.2031 26.4928 11.519 26.4928C10.8348 26.4928 10.7322 25.2365 11.271 23.7621C11.6913 22.6283 12.2123 21.5361 12.8274 20.4991C13.2901 19.5728 13.8869 18.7228 14.5977 17.9777C14.5977 17.9777 14.7174 17.6811 15.6666 17.7683C16.6159 17.8556 21.8924 18.1435 21.8924 18.1435L21.9352 16.163C27.6704 15.3552 33.4546 14.9645 39.2442 14.9939C39.2442 15.5261 39.2442 16.0583 39.2442 16.5905C41.4371 15.5696 43.7984 14.9777 46.2054 14.8456C46.3342 14.8423 46.4618 14.8717 46.5767 14.931C46.6917 14.9904 46.7903 15.078 46.8639 15.1859C47.1547 15.561 48.9249 17.8032 49.1302 18.126C49.705 18.9642 50.2277 19.8384 50.6952 20.7434C50.5349 21.3164 50.2836 21.8587 49.9511 22.3487V22.3574Z" fill="#FDC305"/>
<path d="M48.2839 17.0181C48.6858 17.5415 49.0364 18.0039 49.1391 18.1435C49.7139 18.9817 50.2366 19.8559 50.7041 20.7609C50.5413 21.3151 50.2931 21.8393 49.9686 22.3138C49.5923 22.689 48.8141 22.942 48.6858 21.8078C48.5575 20.6736 48.5062 19.9233 48.5062 19.9233C48.5062 19.9233 46.8557 16.9308 46.24 16.8959C45.6242 16.861 41.2542 19.9233 40.0997 21.2582C39.0992 22.3836 38.9025 22.3051 38.9025 24.2856C38.9025 25.5943 39.0478 30.0874 39.0136 34.0832C40.5615 34.2577 42.8363 34.6939 43.5205 35.7234C43.5205 35.7234 43.2725 29.4592 50.1995 32.7396C50.1995 32.7396 50.439 24.1983 60 26.3882C56.7498 22.4952 52.7654 19.3087 48.2839 17.0181Z" fill="#F06351"/>
<path d="M39.2788 14.994C39.3135 10.1595 38.9128 5.332 38.0815 0.572359C38.0815 0.572359 37.9532 -0.561827 37.3375 0.362971C36.8294 1.46856 36.4836 2.64443 36.3112 3.85277C32.6555 3.61347 28.9859 3.71276 25.3477 4.14941C24.6465 1.75017 23.4492 0.659604 22.8762 0.947513C22.3033 1.23542 22.2348 3.80915 22.2348 3.80915L21.9526 16.1631C27.6935 15.3544 33.4835 14.9637 39.2788 14.994Z" fill="#F06351"/>
<path d="M38.7821 39.222C38.8933 38.2884 38.9531 37.0496 38.9874 35.6798L32.0179 37.573C29.8283 38.2291 27.6005 38.7449 25.3478 39.1173L26.297 43.4795C26.297 43.5755 26.297 43.6715 26.3569 43.7674C27.6505 44.6236 29.0121 45.3677 30.4273 45.9922C32.4957 44.9835 34.4656 43.777 36.3107 42.389V42.4413C37.2925 41.5048 38.1262 40.4188 38.7821 39.222Z" fill="#E55645"/>
<path d="M27.366 12.2632C27.3232 12.1759 28.2211 12.8564 28.5717 13.0658C28.9223 13.2752 29.0934 13.4323 29.0934 13.5806C29.0934 13.7289 28.871 13.8772 28.5632 13.8772C28.2553 13.8772 27.7764 13.7725 27.708 13.6504C27.6396 13.5282 28.2211 13.6504 28.5119 13.6504H28.7599C28.2334 13.2574 27.7641 12.7904 27.366 12.2632Z" fill="black"/>
<path d="M33.7799 12.3592C33.7799 12.3592 32.9247 13.4759 32.8478 13.5283C32.7708 13.5806 32.7024 13.8249 33.0103 13.7813C33.3637 13.7274 33.7125 13.6458 34.0535 13.537C34.1476 13.4846 34.1134 13.3625 33.9509 13.3799C33.7884 13.3974 33.3694 13.4236 33.0958 13.4759L33.8227 12.3679C33.8227 12.3679 33.8483 12.2632 33.7799 12.3592Z" fill="black"/>
<path d="M31.0946 17.6898C31.491 17.5117 31.8186 17.205 32.0267 16.8174C32.2661 16.2416 32.0267 16.0235 31.6504 15.9449C31.1328 15.8486 30.5986 15.9545 30.1539 16.2416C29.8204 16.5644 29.8632 16.8785 30.1539 17.114C30.4428 17.3451 30.7588 17.5386 31.0946 17.6898Z" fill="black"/>
<path d="M30.7866 18.7891C30.6884 18.987 30.555 19.1645 30.3932 19.3126C30.1497 19.5125 29.8503 19.6286 29.5381 19.6441C29.0673 19.6913 28.5965 19.5541 28.2212 19.2603C28.0488 19.1574 27.8954 19.0245 27.7679 18.8676C27.6824 18.7726 27.5772 18.6981 27.4601 18.6495C27.4601 18.6495 28.1014 22.2353 29.6578 22.8111C31.2142 23.3869 31.5049 22.1481 31.5477 21.8165C31.5998 20.8236 31.3553 19.8379 30.8465 18.9898C30.8465 18.7281 30.8294 18.9025 30.7866 18.7891Z" fill="#F06351"/>
<path d="M29.3329 19.7837C28.9327 19.725 28.5483 19.5842 28.2029 19.3698C27.8575 19.1554 27.5583 18.8718 27.3233 18.5361C27.3023 18.5121 27.2906 18.4811 27.2906 18.4489C27.2906 18.4167 27.3023 18.3856 27.3233 18.3616C27.3345 18.35 27.3478 18.3408 27.3624 18.3345C27.3771 18.3282 27.3929 18.325 27.4088 18.325C27.4248 18.325 27.4405 18.3282 27.4552 18.3345C27.4699 18.3408 27.4832 18.35 27.4943 18.3616C27.706 18.6645 27.9744 18.9215 28.2842 19.1177C28.5939 19.3139 28.9388 19.4454 29.2987 19.5046C29.5835 19.4827 29.8591 19.3923 30.1029 19.2406C30.3467 19.0889 30.5517 18.8804 30.7011 18.6321L30.8209 18.4663L30.9064 18.6583C30.9064 18.6583 31.2313 19.3213 31.7615 19.3562C32.2917 19.3911 32.668 18.9898 33.1554 18.2308C33.1736 18.203 33.2018 18.1837 33.2338 18.1772C33.2659 18.1706 33.2992 18.1774 33.3264 18.1959C33.3537 18.2144 33.3725 18.2432 33.379 18.2759C33.3854 18.3086 33.3788 18.3426 33.3606 18.3704C32.7905 19.2254 32.2518 19.6354 31.7444 19.6005C31.5483 19.574 31.3605 19.503 31.1948 19.3928C31.029 19.2826 30.8896 19.136 30.7867 18.9636C30.6193 19.202 30.402 19.3993 30.1506 19.5412C29.8991 19.683 29.6197 19.7659 29.3329 19.7837Z" fill="black"/>
<path d="M31.0089 31.5269C32.78 31.5269 34.2157 30.0621 34.2157 28.2552C34.2157 26.4483 32.78 24.9835 31.0089 24.9835C29.2379 24.9835 27.8021 26.4483 27.8021 28.2552C27.8021 30.0621 29.2379 31.5269 31.0089 31.5269Z" fill="#FDC305"/>
<path d="M35.259 25.5942L32.5824 26.7372L33.5658 21.8253L27.1522 30.3404L29.8288 29.1975L28.8454 34.1181L35.259 25.5942ZM28.9395 28.9357L32.4969 24.2158L31.8042 27.7056L33.5145 26.9902L29.9314 31.7188L30.6241 28.229L28.9395 28.9357Z" fill="#111111"/>
<path d="M27.7423 27.6532C28.2713 27.6532 28.7001 27.2157 28.7001 26.6761C28.7001 26.1364 28.2713 25.6989 27.7423 25.6989C27.2134 25.6989 26.7845 26.1364 26.7845 26.6761C26.7845 27.2157 27.2134 27.6532 27.7423 27.6532Z" fill="#111111"/>
<path d="M33.3181 31.1954C33.6913 31.1954 33.9937 30.8868 33.9937 30.5061C33.9937 30.1255 33.6913 29.8169 33.3181 29.8169C32.945 29.8169 32.6426 30.1255 32.6426 30.5061C32.6426 30.8868 32.945 31.1954 33.3181 31.1954Z" fill="#111111"/>
<path d="M34.1391 29.3022C34.3044 29.3022 34.4384 29.1655 34.4384 28.9968C34.4384 28.8282 34.3044 28.6915 34.1391 28.6915C33.9738 28.6915 33.8398 28.8282 33.8398 28.9968C33.8398 29.1655 33.9738 29.3022 34.1391 29.3022Z" fill="#111111"/>
<path d="M39.236 16.5731C37.6923 17.9928 36.2384 19.511 34.8831 21.1186C33.5331 22.7145 32.0097 24.1488 30.3421 25.3936C30.1539 24.9312 28.9481 24.0675 28.9481 24.0675C28.9481 24.0675 26.2628 22.1917 24.5011 20.7173C23.5488 19.908 22.6516 19.0336 21.8158 18.0999L20.1055 18.0039C22.5744 21.6832 26.1915 24.4015 30.3677 25.7164C31.1032 25.5943 33.1727 24.0849 34.7206 22.8548C36.5519 21.2659 38.2669 19.5426 39.8518 17.6986C40.2778 17.1821 40.6081 16.5908 40.8267 15.9537C39.8518 16.2852 39.236 16.5731 39.236 16.5731Z" fill="#F06351"/>
<path d="M22.175 22.5407C22.175 22.5407 18.9168 21.2844 17.7195 20.9441C17.1573 20.6932 16.5365 20.6116 15.9304 20.709C15.3243 20.8064 14.7581 21.0787 14.2987 21.4937C13.8301 21.9123 13.4554 22.429 13.2001 23.0087C12.9448 23.5883 12.8149 24.2172 12.8193 24.8527C13 25.2582 13.1377 25.6823 13.2298 26.1177C13.2725 26.5365 12.2035 26.4929 11.5194 26.4929C10.8352 26.4929 10.7326 25.2366 11.2714 23.7621C11.6917 22.6284 12.2127 21.5362 12.8278 20.4991C8.16705 22.9769 0 28.7002 0 28.7002C2.33611 28.5565 4.68014 28.6265 7.00399 28.9096C11.4937 29.372 11.2799 32.9839 11.2799 32.9839C12.8591 32.5398 14.4684 32.2161 16.0946 32.0155C17.9076 31.8934 18.0359 33.8651 18.0359 33.8651L18.4892 37.2327C19.1774 36.4731 19.9364 35.7835 20.7554 35.1738C21.8111 34.3116 23.1553 33.9046 24.5011 34.0396L22.175 22.5407Z" fill="#F06351"/>
<path d="M74.2184 32.4708C73.3349 31.1952 72.9125 29.6692 73.0177 28.1337V21.8663C72.9063 20.3195 73.3223 18.7802 74.2013 17.4875C74.996 16.4903 76.3539 15.9945 78.275 16C80.1961 16.0056 81.4969 16.4429 82.1773 17.312C83.0069 18.389 83.4117 19.7206 83.3179 21.0641V22.5348H79.7673V20.9388C79.7625 20.5188 79.7253 20.0998 79.6558 19.6853C79.6129 19.3852 79.4715 19.1067 79.2527 18.8914C79.1177 18.7786 78.9609 18.6931 78.7916 18.64C78.6222 18.5869 78.4437 18.5673 78.2664 18.5822C78.0119 18.5452 77.7518 18.5855 77.5217 18.6977C77.2915 18.8098 77.1023 18.9883 76.98 19.209C76.7545 19.7958 76.6552 20.4216 76.6884 21.0474V29.0028C76.6493 29.6327 76.7639 30.2628 77.0229 30.8412C77.1466 31.0499 77.3302 31.2188 77.5512 31.3272C77.7721 31.4356 78.0207 31.4787 78.2664 31.4513C78.5079 31.4845 78.754 31.4427 78.9696 31.3316C79.1852 31.2206 79.3593 31.046 79.4671 30.8329C79.6746 30.2449 79.7648 29.6238 79.733 29.0028V27.3315H83.2836V28.7772C83.3881 30.1405 83.0164 31.4982 82.2287 32.6295C81.474 33.5487 80.1704 34 78.3179 34C76.4654 34 75.016 33.4986 74.2184 32.4708Z" fill="#111111"/>
<path d="M88.1556 16.2424H92.2208L95.6513 33.7911H92.2722L91.6633 29.9136H88.816L88.1299 33.766H84.6993L88.1556 16.2424ZM91.286 27.7075L90.2054 20.6546L89.1333 27.7075H91.286Z" fill="#111111"/>
<path d="M98.2847 18.883H95.506V16.2424H104.7V18.883H101.955V33.766H98.2761L98.2847 18.883Z" fill="#111111"/>
<path d="M111.913 16.2424H118.886V18.0641H114.426V23.8552H118.045V25.585H114.426V32.0111H118.929V33.766H111.913V16.2424Z" fill="#444444"/>
<path d="M120.953 16.2424H122.669L127.814 27.883V16.2424H129.907V33.7911H128.303L123.157 21.8245V33.766H121.03L120.953 16.2424Z" fill="#444444"/>
<path d="M132.678 16.2424H139.642V18.0641H135.182V23.8552H138.836V25.585H135.216V32.0111H139.693V33.766H132.678V16.2424Z" fill="#444444"/>
<path d="M141.709 16.2424H145.328C146.754 16.1305 148.175 16.5188 149.333 17.3371C150.191 18.0641 150.611 19.2507 150.611 20.8969C150.611 23.1254 149.871 24.4875 148.39 24.9833L150.963 33.766H148.527L146.169 25.5432H144.222V33.766H141.709V16.2424ZM145.14 23.7632C145.966 23.8411 146.792 23.6145 147.455 23.1281C147.725 22.8173 147.926 22.4561 148.047 22.0667C148.168 21.6772 148.206 21.2678 148.158 20.8635C148.176 20.2966 148.091 19.731 147.91 19.1922C147.836 18.9935 147.722 18.8113 147.575 18.6563C147.427 18.5013 147.25 18.3766 147.052 18.2897C146.495 18.0671 145.895 17.9673 145.294 17.9972H144.188V23.7967L145.14 23.7632Z" fill="#444444"/>
<path d="M153.991 32.4707C153.171 31.1225 152.791 29.5634 152.902 28V22.1504C152.872 21.0216 153.017 19.8948 153.33 18.8078C153.578 17.9906 154.105 17.2802 154.823 16.7939C155.69 16.2848 156.693 16.0403 157.704 16.0919C158.358 16.0314 159.018 16.1106 159.637 16.3243C160.256 16.5379 160.82 16.8807 161.289 17.3287C162.112 18.4519 162.501 19.8223 162.387 21.1978V21.8496H160.029V21.3064C160.045 20.6568 159.993 20.0072 159.874 19.3677C159.796 18.9579 159.564 18.5913 159.222 18.3399C158.777 18.0838 158.263 17.9644 157.747 17.9972C157.187 17.9505 156.63 18.1184 156.195 18.4652C155.839 18.794 155.607 19.2294 155.535 19.702C155.426 20.3903 155.377 21.0864 155.389 21.7827V28.2925C155.321 29.2817 155.494 30.2725 155.895 31.1838C156.128 31.4641 156.423 31.6888 156.758 31.8408C157.094 31.9928 157.461 32.068 157.831 32.0607C158.2 32.0535 158.564 31.9639 158.893 31.7989C159.222 31.6339 159.507 31.3978 159.728 31.1086C160.142 30.1448 160.321 29.1009 160.252 28.0585V26.8217H157.97V25.0919H162.516V33.766H160.963L160.715 31.7521C160.518 32.4212 160.095 33.0058 159.514 33.4109C158.933 33.8159 158.229 34.0177 157.516 33.9833C156.845 34.0409 156.17 33.9324 155.554 33.668C154.938 33.4036 154.4 32.9918 153.991 32.4707Z" fill="#444444"/>
<path d="M167.731 27.5822L163.846 16.2424H166.178L168.931 24.6992L171.641 16.2424H174L170.141 27.5822V33.766H167.739L167.731 27.5822Z" fill="#444444"/>
</g>
<defs>
<clipPath id="clip0_112560_2043">
<rect width="174" height="50" fill="white"/>
</clipPath>
</defs>
</svg>
