<svg width="202" height="59" viewBox="0 0 202 59" fill="none" xmlns="http://www.w3.org/2000/svg">
<g clip-path="url(#clip0_112560_2215)">
<path d="M59.7434 23.8063C58.0235 19.7092 55.2535 16.1317 51.7097 13.4305C48.1658 10.7293 43.9717 8.99856 39.5455 8.41087C35.1192 7.82319 30.6153 8.39904 26.4827 10.081C22.35 11.763 18.7329 14.4925 15.9918 17.9973C13.2507 21.5021 11.4814 25.6599 10.8601 30.0564C10.2388 34.4529 10.7873 38.9344 12.4509 43.0545C14.1145 47.1745 16.8351 50.7892 20.3416 53.5382C23.8482 56.2872 28.0181 58.0746 32.4359 58.7223C31.8572 56.6491 31.2685 54.3578 30.7497 51.9275C32.259 52.9009 33.8476 53.747 35.4989 54.457C35.4989 54.457 35.6186 56.5995 35.7782 58.9901C37.5624 59.0207 39.3448 58.8644 41.0961 58.5239C41.0508 58.2746 41.0508 58.0193 41.0961 57.77C41.3854 55.9151 42.1836 52.5723 42.3432 50.4198C43.4939 49.3498 44.47 48.1082 45.2366 46.7397L45.1767 47.1762C44.628 51.4018 43.4806 55.9151 42.7822 57.1649C42.5561 57.5786 42.2778 57.962 41.9541 58.3056C45.5656 57.4633 48.9497 55.8502 51.8717 53.5781C54.7937 51.3059 57.1837 48.4292 58.876 45.1473C60.5683 41.8653 61.5224 38.2568 61.6722 34.5717C61.822 30.8867 61.1638 27.2133 59.7434 23.8063ZM58.2768 27.5657C57.8378 27.9923 56.9299 28.2799 56.7802 26.9904C56.6305 25.7009 56.5906 24.7982 56.5906 24.7982C56.5906 24.7982 54.665 21.3959 53.9467 21.3562C53.2283 21.3166 48.13 24.7982 46.7831 26.3159C45.6157 27.5955 45.3863 27.5062 45.3863 29.7579C45.3863 31.4541 45.6058 37.862 45.486 42.7621L37.3546 44.9146C34.7988 45.6438 32.1997 46.2136 29.5724 46.6207L28.5747 40.8378H28.435L25.8709 27.774C25.8709 27.774 22.0696 26.3457 20.6728 25.9588C20.0169 25.6735 19.2926 25.5808 18.5855 25.6915C17.8783 25.8022 17.2178 26.1118 16.6819 26.5837C16.1352 27.0596 15.698 27.6471 15.4001 28.3061C15.1023 28.9651 14.9507 29.6802 14.9558 30.4026C15.1667 30.8637 15.3273 31.3459 15.4347 31.8409C15.4846 32.3171 14.2375 32.2675 13.4393 32.2675C12.6411 32.2675 12.5214 30.8391 13.15 29.1627C13.6403 27.8737 14.2482 26.632 14.9658 25.4529C15.5056 24.3997 16.2018 23.4333 17.0311 22.5862C17.0311 22.5862 17.1708 22.249 18.2782 22.3482C19.3857 22.4474 25.5416 22.7747 25.5416 22.7747L25.5915 20.523C32.2826 19.6045 39.0309 19.1603 45.7853 19.1938C45.7853 19.7989 45.7853 20.404 45.7853 21.0091C48.3438 19.8483 51.0986 19.1754 53.9068 19.0252C54.057 19.0214 54.2059 19.0548 54.34 19.1223C54.474 19.1898 54.5892 19.2894 54.675 19.4121C55.0142 19.8386 57.0795 22.3879 57.319 22.7549C57.9896 23.7078 58.5995 24.7017 59.1448 25.7307C58.9579 26.3822 58.6646 26.9988 58.2768 27.5558V27.5657Z" fill="#FDC305"/>
<path d="M56.3312 21.4951C56.8001 22.0903 57.2092 22.616 57.3289 22.7747C57.9996 23.7276 58.6094 24.7215 59.1547 25.7505C58.9649 26.3806 58.6753 26.9766 58.2967 27.5161C57.8577 27.9426 56.9498 28.2303 56.8001 26.9408C56.6505 25.6513 56.5906 24.7982 56.5906 24.7982C56.5906 24.7982 54.665 21.3959 53.9467 21.3562C53.2283 21.3166 48.13 24.7982 46.783 26.3159C45.6157 27.5955 45.3862 27.5062 45.3862 29.7579C45.3862 31.2458 45.5558 36.3542 45.5159 40.8973C47.3218 41.0956 49.9757 41.5916 50.7739 42.7621C50.7739 42.7621 50.4846 35.64 58.5661 39.3697C58.5661 39.3697 58.8455 29.6587 70 32.1484C66.2081 27.7223 61.5597 24.0994 56.3312 21.4951Z" fill="#F06351"/>
<path d="M45.8251 19.1938C45.8657 13.6973 45.3981 8.20868 44.4283 2.79723C44.4283 2.79723 44.2786 1.50772 43.5603 2.55916C42.9675 3.81616 42.5641 5.15306 42.363 6.52688C38.0979 6.25481 33.8168 6.36769 29.5723 6.86414C28.7541 4.13633 27.3573 2.89642 26.6889 3.22376C26.0204 3.55109 25.9406 6.47729 25.9406 6.47729L25.6113 20.523C32.309 19.6036 39.064 19.1594 45.8251 19.1938Z" fill="#F06351"/>
<path d="M45.2459 46.7398C45.3756 45.6784 45.4454 44.2699 45.4853 42.7125L37.3543 44.865C34.7997 45.611 32.2007 46.1974 29.5725 46.6207L30.6799 51.5804C30.6799 51.6895 30.6799 51.7986 30.7498 51.9077C32.259 52.8811 33.8475 53.7272 35.4987 54.4371C37.9117 53.2903 40.21 51.9186 42.3626 50.3405V50.4C43.508 49.3352 44.4807 48.1005 45.2459 46.7398Z" fill="#E55645"/>
<path d="M31.927 16.0891C31.8771 15.9899 32.9247 16.7636 33.3337 17.0017C33.7428 17.2398 33.9423 17.4183 33.9423 17.5869C33.9423 17.7556 33.6829 17.9242 33.3238 17.9242C32.9646 17.9242 32.4059 17.8052 32.3261 17.6663C32.2463 17.5274 32.9247 17.6663 33.2639 17.6663H33.5532C32.939 17.2195 32.3915 16.6885 31.927 16.0891Z" fill="black"/>
<path d="M39.41 16.1982C39.41 16.1982 38.4123 17.4679 38.3225 17.5274C38.2327 17.5869 38.1529 17.8647 38.5121 17.8151C38.9244 17.7539 39.3314 17.661 39.7293 17.5373C39.839 17.4778 39.7991 17.3389 39.6095 17.3588C39.42 17.3786 38.9311 17.4084 38.6119 17.4679L39.4599 16.2081C39.4599 16.2081 39.4898 16.0891 39.41 16.1982Z" fill="black"/>
<path d="M36.2769 22.2589C36.7393 22.0564 37.1216 21.7077 37.3643 21.267C37.6437 20.6123 37.3643 20.3643 36.9254 20.2751C36.3214 20.1655 35.6982 20.2859 35.1794 20.6123C34.7903 20.9793 34.8402 21.3364 35.1794 21.6043C35.5164 21.867 35.8851 22.0869 36.2769 22.2589Z" fill="black"/>
<path d="M35.9176 23.5087C35.803 23.7337 35.6474 23.9355 35.4586 24.1039C35.1745 24.3312 34.8252 24.4631 34.461 24.4808C33.9117 24.5344 33.3624 24.3784 32.9245 24.0444C32.7234 23.9274 32.5445 23.7764 32.3958 23.598C32.296 23.49 32.1733 23.4053 32.0366 23.35C32.0366 23.35 32.7849 27.4269 34.6006 28.0815C36.4164 28.7362 36.7556 27.3277 36.8055 26.9507C36.8663 25.8218 36.581 24.7011 35.9874 23.7369C35.9874 23.4393 35.9674 23.6377 35.9176 23.5087Z" fill="#F06351"/>
<path d="M34.2215 24.6395C33.7546 24.5728 33.3061 24.4127 32.9032 24.1689C32.5002 23.9251 32.1511 23.6027 31.877 23.2211C31.8524 23.1938 31.8389 23.1585 31.8389 23.1219C31.8389 23.0853 31.8524 23.05 31.877 23.0227C31.89 23.0095 31.9055 22.999 31.9226 22.9918C31.9398 22.9847 31.9582 22.981 31.9767 22.981C31.9953 22.981 32.0137 22.9847 32.0309 22.9918C32.048 22.999 32.0635 23.0095 32.0765 23.0227C32.3234 23.367 32.6366 23.6592 32.998 23.8823C33.3593 24.1054 33.7617 24.2549 34.1816 24.3221C34.5138 24.2973 34.8353 24.1944 35.1198 24.022C35.4042 23.8495 35.6434 23.6124 35.8178 23.3302L35.9574 23.1417L36.0572 23.3599C36.0572 23.3599 36.4363 24.1138 37.0549 24.1535C37.6734 24.1932 38.1124 23.7369 38.6811 22.8739C38.7022 22.8423 38.7352 22.8204 38.7726 22.813C38.81 22.8055 38.8489 22.8132 38.8806 22.8342C38.9124 22.8553 38.9344 22.888 38.9419 22.9252C38.9494 22.9624 38.9417 23.001 38.9205 23.0326C38.2554 24.0047 37.6269 24.4709 37.0349 24.4312C36.8061 24.4011 36.587 24.3204 36.3937 24.1951C36.2003 24.0698 36.0376 23.9031 35.9175 23.7071C35.7223 23.9781 35.4688 24.2024 35.1754 24.3637C34.882 24.525 34.5561 24.6192 34.2215 24.6395Z" fill="black"/>
<path d="M36.1771 37.9909C38.2433 37.9909 39.9183 36.3255 39.9183 34.2712C39.9183 32.2168 38.2433 30.5515 36.1771 30.5515C34.1108 30.5515 32.4358 32.2168 32.4358 34.2712C32.4358 36.3255 34.1108 37.9909 36.1771 37.9909Z" fill="#FDC305"/>
<path d="M41.1354 31.2458L38.0127 32.5453L39.16 26.9607L31.6775 36.6419L34.8002 35.3425L33.6529 40.937L41.1354 31.2458ZM33.7626 35.0449L37.9129 29.6786L37.1048 33.6463L39.1001 32.8329L34.9199 38.2092L35.728 34.2415L33.7626 35.0449Z" fill="#111111"/>
<path d="M32.3659 33.5867C32.983 33.5867 33.4833 33.0893 33.4833 32.4758C33.4833 31.8622 32.983 31.3648 32.3659 31.3648C31.7488 31.3648 31.2485 31.8622 31.2485 32.4758C31.2485 33.0893 31.7488 33.5867 32.3659 33.5867Z" fill="#111111"/>
<path d="M38.8712 37.614C39.3065 37.614 39.6593 37.2632 39.6593 36.8304C39.6593 36.3976 39.3065 36.0468 38.8712 36.0468C38.4359 36.0468 38.083 36.3976 38.083 36.8304C38.083 37.2632 38.4359 37.614 38.8712 37.614Z" fill="#111111"/>
<path d="M39.8289 35.4615C40.0218 35.4615 40.1781 35.3061 40.1781 35.1143C40.1781 34.9226 40.0218 34.7672 39.8289 34.7672C39.6361 34.7672 39.4797 34.9226 39.4797 35.1143C39.4797 35.3061 39.6361 35.4615 39.8289 35.4615Z" fill="#111111"/>
<path d="M45.7753 20.9892C43.9742 22.6034 42.278 24.3295 40.6969 26.1572C39.1219 27.9717 37.3445 29.6023 35.399 31.0177C35.1795 30.4919 33.7727 29.5099 33.7727 29.5099C33.7727 29.5099 30.6399 27.3773 28.5846 25.7009C27.4735 24.7809 26.4268 23.7867 25.4517 22.7251L23.4563 22.616C26.3368 26.7991 30.5566 29.8897 35.4289 31.3847C36.287 31.2458 38.7014 29.5298 40.5073 28.1311C42.6438 26.3247 44.6446 24.3654 46.4936 22.2688C46.9906 21.6816 47.376 21.0094 47.631 20.285C46.4936 20.6619 45.7753 20.9892 45.7753 20.9892Z" fill="#F06351"/>
<path d="M65.0708 3.47176L56.6305 12.8356L55.4133 10.8616L63.5443 0L65.0708 3.47176Z" fill="#FDC305"/>
<path d="M62.5072 17.1207L68.0343 13.0439L67.2561 9.33405L61.8687 14.1052L62.5072 17.1207Z" fill="#FDC305"/>
<path d="M59.7832 48.9716L65.8989 52.126L68.9019 49.8048L62.2275 47.077L59.7832 48.9716Z" fill="#FDC305"/>
<path d="M1.94531 5.92181L5.00816 2.58893L14.2765 11.5163L13.0593 13.7779L1.94531 5.92181Z" fill="#FDC305"/>
<path d="M7.36275 16.1486L2.6737 13.0439L0.279297 16.8827L5.41729 19.2633L7.36275 16.1486Z" fill="#FDC305"/>
<path d="M13.878 52.1259L9.33862 55.4489L12.1321 59L16.1427 55.0124L13.878 52.1259Z" fill="#FDC305"/>
<path d="M25.8708 27.7741C25.8708 27.7741 22.0695 26.3457 20.6727 25.9588C20.0169 25.6736 19.2926 25.5808 18.5855 25.6915C17.8783 25.8023 17.2178 26.1119 16.6819 26.5837C16.1351 27.0597 15.6979 27.6471 15.4001 28.3061C15.1022 28.9651 14.9507 29.6802 14.9558 30.4027C15.1667 30.8637 15.3273 31.3459 15.4347 31.841C15.4846 32.3171 14.2374 32.2675 13.4393 32.2675C12.6411 32.2675 12.5214 30.8391 13.1499 29.1628C13.6403 27.8738 14.2481 26.632 14.9658 25.4529C9.52821 28.27 0 34.7771 0 34.7771C2.72546 34.6137 5.46016 34.6933 8.17132 35.0151C13.4093 35.5409 13.1599 39.6475 13.1599 39.6475C15.0022 39.1425 16.8798 38.7745 18.7771 38.5464C20.8922 38.4075 21.0419 40.6493 21.0419 40.6493L21.5707 44.4782C22.3736 43.6145 23.2591 42.8305 24.2146 42.1372C25.4463 41.157 27.0145 40.6942 28.5846 40.8477L25.8708 27.7741Z" fill="#F06351"/>
<path d="M85.4235 38.2159C84.3913 36.7277 83.8977 34.9474 84.0207 33.156V25.844C83.8905 24.0394 84.3766 22.2435 85.4035 20.7354C86.332 19.572 87.9185 18.9936 90.1629 19.0001C92.4074 19.0066 93.927 19.5168 94.722 20.5307C95.6912 21.7872 96.1642 23.3407 96.0546 24.9081V26.624H91.9064V24.7619C91.9008 24.2719 91.8572 23.7831 91.7761 23.2995C91.726 22.9494 91.5607 22.6245 91.3052 22.3733C91.1474 22.2417 90.9642 22.1419 90.7664 22.08C90.5685 22.0181 90.36 21.9951 90.1529 22.0126C89.8555 21.9694 89.5517 22.0164 89.2827 22.1473C89.0138 22.2781 88.7928 22.4864 88.6499 22.7438C88.3864 23.4284 88.2705 24.1585 88.3092 24.8886V34.1699C88.2635 34.9049 88.3974 35.6399 88.7 36.3148C88.8446 36.5582 89.0591 36.7553 89.3172 36.8817C89.5753 37.0082 89.8658 37.0585 90.1529 37.0265C90.435 37.0653 90.7225 37.0164 90.9744 36.8869C91.2263 36.7573 91.4297 36.5537 91.5557 36.305C91.798 35.6191 91.9035 34.8944 91.8663 34.1699V32.2201H96.0145V33.9067C96.1366 35.4972 95.7023 37.0812 94.7821 38.4011C93.9003 39.4735 92.3773 40 90.213 40C88.0487 40 86.3554 39.415 85.4235 38.2159Z" fill="#111111"/>
<path d="M101.706 19.2828H106.456L110.464 39.7563H106.516L105.805 35.2326H102.478L101.676 39.727H97.6685L101.706 19.2828ZM105.364 32.6588L104.101 24.4304L102.849 32.6588H105.364Z" fill="#111111"/>
<path d="M113.541 22.3635H110.294V19.2828H121.035V22.3635H117.829V39.727H113.531L113.541 22.3635Z" fill="#111111"/>
<path d="M129.463 19.2828H137.609V21.4081H132.399V28.1644H136.627V30.1825H132.399V37.6797H137.659V39.727H129.463V19.2828Z" fill="#444444"/>
<path d="M140.025 19.2828H142.029L148.041 32.8635V19.2828H150.485V39.7563H148.612L142.6 25.7953V39.727H140.115L140.025 19.2828Z" fill="#444444"/>
<path d="M153.722 19.2828H161.859V21.4081H156.648V28.1644H160.917V30.1825H156.688V37.6797H161.919V39.727H153.722V19.2828Z" fill="#444444"/>
<path d="M164.274 19.2828H168.502C170.169 19.1523 171.828 19.6053 173.182 20.56C174.184 21.4081 174.675 22.7925 174.675 24.7131C174.675 27.313 173.81 28.9021 172.079 29.4805L175.085 39.727H172.24L169.484 30.1337H167.21V39.727H164.274V19.2828ZM168.282 28.0572C169.247 28.148 170.212 27.8837 170.987 27.3162C171.302 26.9536 171.537 26.5322 171.679 26.0778C171.82 25.6235 171.864 25.1458 171.809 24.6742C171.829 24.0127 171.731 23.3529 171.518 22.7243C171.432 22.4925 171.299 22.2799 171.127 22.099C170.955 21.9182 170.747 21.7728 170.516 21.6714C169.866 21.4117 169.164 21.2952 168.462 21.3302H167.17V28.0961L168.282 28.0572Z" fill="#444444"/>
<path d="M178.623 38.2159C177.665 36.643 177.221 34.824 177.35 33V26.1755C177.316 24.8586 177.485 23.544 177.851 22.2758C178.141 21.3224 178.756 20.4936 179.595 19.9263C180.608 19.3323 181.781 19.0471 182.962 19.1073C183.726 19.0366 184.496 19.1291 185.22 19.3784C185.943 19.6276 186.602 20.0275 187.15 20.5502C188.111 21.8606 188.566 23.4594 188.432 25.0641V25.8246H185.677V25.1909C185.696 24.4329 185.635 23.6751 185.497 22.929C185.405 22.4509 185.134 22.0232 184.735 21.7299C184.215 21.4312 183.614 21.2919 183.012 21.3302C182.357 21.2757 181.707 21.4715 181.198 21.8761C180.783 22.2598 180.511 22.7677 180.427 23.319C180.3 24.1221 180.243 24.9342 180.256 25.7466V33.3413C180.177 34.4953 180.379 35.6513 180.847 36.7145C181.119 37.0415 181.464 37.3036 181.856 37.481C182.248 37.6583 182.677 37.746 183.109 37.7376C183.541 37.7291 183.966 37.6246 184.35 37.4321C184.734 37.2396 185.068 36.9641 185.326 36.6268C185.809 35.5023 186.018 34.2844 185.938 33.0683V31.6254H183.272V29.6073H188.583V39.727H186.769L186.479 37.3775C186.249 38.1581 185.755 38.8401 185.076 39.3127C184.398 39.7853 183.575 40.0207 182.741 39.9805C181.958 40.0478 181.169 39.9212 180.449 39.6127C179.729 39.3043 179.101 38.8238 178.623 38.2159Z" fill="#444444"/>
<path d="M194.675 32.5125L190.136 19.2828H192.862L196.078 29.149L199.245 19.2828H202L197.491 32.5125V39.727H194.685L194.675 32.5125Z" fill="#444444"/>
</g>
<defs>
<clipPath id="clip0_112560_2215">
<rect width="202" height="59" fill="white"/>
</clipPath>
</defs>
</svg>
